                     =!DK GROUP HD BLURAY RELEAESEES!=

===================================================================================

          Mission Impossible-1 (1996)Bluray Rip In[Hindi-Eng]By !!!dip

===================================================================================

Storyline:

Based on the hit T.V. series. Jim Phelps was sent to Prague for a mission to prevent the theft of classified material. His wife Claire and his trusted partner Ethan Hunt were members of Phelps' team. Unfortunately, something went horribly wrong and the mission failed, leaving Ethan Hunt the lone survivor. After he reported the failed mission, Kettridge the head if the agency suspects Ethan of being the culprit for the failed mission. Now, Ethan uses unorthodox methods (Which includes the aid of an arms dealer going by the name "Max") to try to find who set him up and to clear his name.


Cast:
Tom Cruise	     ...	Ethan Hunt
Jon Voight	     ...	Jim Phelps
Emmanuelle Béart     ...	Claire Phelps (as Emmanuelle Beart)
Henry Czerny	     ...	Eugene Kittridge
Jean Reno	     ...	Franz Krieger
Ving Rhames	     ...	Luther Stickell
Kristin Scott Thomas ...	Sarah Davies (as Kristin Scott-Thomas)
Vanessa Redgrave     ...	Max
Dale Dye	     ...	Frank Barnes
Marcel Iures	     ...	Alexander Golitsyn
Ion Caramitru	     ...	Zozimov
Ingeborga Dapkunaite ...	Hannah Williams
Valentina Yakunina   ...	Drunken Female IMF Agent
Marek Vasut	     ...	Drunken Male IMF Agent
Nathan Osgood	     ...	Kittridge Technician

Directors :Brian De Palma
Writers :Bruce Geller (television series), David Koepp (story)
Stars:Tom Cruise, Jon Voight and Emmanuelle Béart
Genre: Action | Adventure | Thriller
Language: English-Hindi
Format : Color, Dubbed,Widescreen
Release Date : 22 May 1996 (USA)
Run Time : 01H:45M:413S
Encoder: Deep Shikha

Budget: $80,000,000 (estimated)
Opening Weekend: $45,436,830 (USA) (22 May 1996)
Gross: $456,494,803 (Worldwide)

Filming Locations: Albert R. Broccoli 007 Stage, Pinewood Studios, Iver Heath, Buckinghamshire, England, UK



Video Specifications:



Video
ID : 1
Format : AVC
Format/Info : Advanced Video Codec
Format profile : Main@L3.0
Format settings, CABAC : Yes
Format settings, ReFrames : 4 frames
Format settings, GOP : M=3, N=16
Muxing mode : Header stripping
Codec ID : V_MPEG4/ISO/AVC
Duration : 1h 50mn
Bit rate : 482 Kbps
Width : 720 pixels
Height : 480 pixels
Display aspect ratio : 2.500
Frame rate mode : Variable
Frame rate : 25.000 fps
Standard : NTSC
Color space : YUV
Chroma subsampling : 4:2:0
Bit depth : 8 bits
Scan type : Progressive
Bits/(Pixel*Frame) : 0.056
Stream size : 380 MiB (57%)
Title : !!!dip
Team : DK Group HD Bluray Releases




Audio Specifications:



Audio #1
ID : 2
Format : AC-3
Format/Info : Audio Coding 3
Mode extension : CM (complete main)
Muxing mode : Header stripping
Codec ID : A_AC3
Duration : 1h 50mn
Bit rate mode : Constant
Bit rate : 224 Kbps
Channel(s) : 6 channels
Channel positions : Front: L C R, Side: L R, LFE
Sampling rate : 48.0 KHz
Bit depth : 16 bits
Compression mode : Lossy
Stream size : 177 MiB (26%)
Title : !!!dip
Language : English

Audio #2
ID : 3
Format : MPEG Audio
Format version : Version 1
Format profile : Layer 3
Mode : Joint stereo
Muxing mode : Header stripping
Codec ID : A_MPEG/L3
Codec ID/Hint : MP3
Duration : 1h 50mn
Bit rate mode : Constant
Bit rate : 128 Kbps
Channel(s) : 2 channels
Sampling rate : 48.0 KHz
Compression mode : Lossy
Delay relative to video : 1s 200ms
Stream size : 101 MiB (15%)
Title : !!!dip
Writing library : LAME3.96.1
Language : Hindi

Text
ID : 4
Format : UTF-8
Codec ID : S_TEXT/UTF8
Codec ID/Info : UTF-8 Plain Text
Language : English


===================================================================================

          Mission Impossible-2(2000)Bluray Rip In[Hindi-Eng]By !!!dip

===================================================================================

Storyline:

IMF agent Ethan Hunt has been sent on a mission to retrieve and destroy the supply of a genetically created disease called 'Chimera'. His mission is made impossible due to the fact that he is not the only person after samples of the disease. He must also contest with a gang of international terrorists headed by a turned bad former IMF agent who has already managed to steal the cure called 'Bellerophon' and now need 'Chimera' to complete their grand plan of infecting the whole world. In order to infiltrate and locate the terrorist group he relies on the help of an international thief Nyah of whom he quickly develops a love interest. Time is not only running out for Agent Hunt to find and destroy 'Chimera' before the terrorists get their hands on it, but he must also find 'Bellerophon' so as to save his love interest who has already become infected by the disease from a terrible and rapid death.


Cast:

Tom Cruise	 ...	Ethan Hunt
Dougray Scott	 ...	Sean Ambrose
Thandie Newton	 ...	Nyah Nordoff-Hall
Ving Rhames	 ...	Luther Stickell
Richard Roxburgh ...	Hugh Stamp
John Polson	 ...	Billy Baird
Brendan Gleeson	 ...	John C. McCloy
Rade Serbedzija	 ...	Dr. Nekhorvich (as Radé Sherbedgia)
William Mapother ...	Wallis
Dominic Purcell	 ...	Ulrich
Mathew Wilkinson ...	Michael
Nicholas Bell	 ...	Accountant
Cristina Brogers ...	Flamenco Dancer
Kee Chan	 ...	Chemist
Kim Fleming	 ...	Larrabee


Directors :Brian De Palma
Writers :Bruce Geller (television series), David Koepp (story)
Stars:Tom Cruise, Jon Voight and Emmanuelle Béart
Genre: Action | Adventure | Thriller
Language: English-Hindi
Format : Color, Dubbed,Widescreen
Release Date : 29 September 2000 (India)
Run Time : 02H:03M:35S
Encoder: Deep Shikha



Video Specifications:

Video
ID : 1
Format : AVC
Format/Info : Advanced Video Codec
Format profile : Main@L3.0
Format settings, CABAC : Yes
Format settings, ReFrames : 4 frames
Muxing mode : Header stripping
Codec ID : V_MPEG4/ISO/AVC
Duration : 2h 3mn
Bit rate : 452 Kbps
Width : 720 pixels
Height : 480 pixels
Display aspect ratio : 2.500
Frame rate mode : Variable
Frame rate : 23.976 fps
Standard : NTSC
Color space : YUV
Chroma subsampling : 4:2:0
Bit depth : 8 bits
Scan type : Progressive
Bits/(Pixel*Frame) : 0.055
Stream size : 381 MiB (54%)
Title : !!!dip
Team : DK Group HD Bluray Releases



Audio Specifications:



Audio #1
ID : 2
Format : AC-3
Format/Info : Audio Coding 3
Mode extension : CM (complete main)
Muxing mode : Header stripping
Codec ID : A_AC3
Duration : 2h 3mn
Bit rate mode : Constant
Bit rate : 224 Kbps
Channel(s) : 6 channels
Channel positions : Front: L C R, Side: L R, LFE
Sampling rate : 48.0 KHz
Bit depth : 16 bits
Compression mode : Lossy
Stream size : 198 MiB (28%)
Title : !!!dip
Language : English

Audio #2
ID : 3
Format : AC-3
Format/Info : Audio Coding 3
Mode extension : CM (complete main)
Muxing mode : Header stripping
Codec ID : A_AC3
Duration : 2h 3mn
Bit rate mode : Constant
Bit rate : 128 Kbps
Channel(s) : 2 channels
Channel positions : Front: L R
Sampling rate : 48.0 KHz
Bit depth : 16 bits
Compression mode : Lossy
Delay relative to video : 4s 384ms
Stream size : 113 MiB (16%)
Title : !!!dip
Language : Hindi

Text
ID : 4
Format : UTF-8
Codec ID : S_TEXT/UTF8
Codec ID/Info : UTF-8 Plain Text
Title : !!!dip
Language : English

===================================================================================

          Mission Impossible-3(2006)Bluray Rip In[Hindi-Eng]By !!!dip

===================================================================================

Storyline:

IMF agent Ethan Hunt has been sent on a mission to retrieve and destroy the supply of a genetically created disease called 'Chimera'. His mission is made impossible due to the fact that he is not the only person after samples of the disease. He must also contest with a gang of international terrorists headed by a turned bad former IMF agent who has already managed to steal the cure called 'Bellerophon' and now need 'Chimera' to complete their grand plan of infecting the whole world. In order to infiltrate and locate the terrorist group he relies on the help of an international thief Nyah of whom he quickly develops a love interest. Time is not only running out for Agent Hunt to find and destroy 'Chimera' before the terrorists get their hands on it, but he must also find 'Bellerophon' so as to save his love interest who has already become infected by the disease from a terrible and rapid death.


Cast:

Tom Cruise...............Ethan Hunt
Philip Seymour Hoffman...Owen Davian
Ving Rhames..............Luther Stickell
Billy Crudup.............John Musgrave
Michelle Monaghan........Julia
Jonathan Rhys Meyers.....Declan Gormley
Keri Russell.............Lindsey Farris
Maggie Q.................Zhen Lei
Simon Pegg...............Benji Dunn
Eddie Marsan.............Brownway
Laurence Fishburne.......Theodore Brassel
Bahar Soomekh............Davian's Translator
Jeff Chase...............Davian's Bodyguard
Michael Berry Jr.........Julia's Kidnapper
Carla Gallo..............Beth


Directors :J.J. Abrams
Writers :Alex Kurtzman, Roberto Orci
Stars: Tom Cruise, Michelle Monaghan and Ving Rhames
Genre: Action | Adventure | Thriller
Language: English-Hindi
Format : Color, Dubbed,Widescreen
Release Date :16 June 2006 (India)
Run Time : 02H:05M:24S
Encoder: Deep Shikha


Video Specifications:


Video
ID : 1
Format : AVC
Format/Info : Advanced Video Codec
Format profile : Main@L3.0
Format settings, CABAC : Yes
Format settings, ReFrames : 4 frames
Muxing mode : Header stripping
Codec ID : V_MPEG4/ISO/AVC
Duration : 2h 5mn
Nominal bit rate : 441 Kbps
Width : 720 pixels
Height : 480 pixels
Display aspect ratio : 2.40:1
Frame rate mode : Variable
Frame rate : 23.976 fps
Standard : NTSC
Color space : YUV
Chroma subsampling : 4:2:0
Bit depth : 8 bits
Scan type : Progressive
Bits/(Pixel*Frame) : 0.053
Title : !!!dip
Team : DK Group HD Bluray Releases



Audio Specifications:



Audio #1
ID : 2
Format : AAC
Format/Info : Advanced Audio Codec
Format profile : LC
Codec ID : A_AAC
Duration : 2h 5mn
Channel(s) : 6 channels
Channel positions : Front: L C R, Side: L R, LFE
Sampling rate : 48.0 KHz
Compression mode : Lossy
Title : !!!dip
Language : English

Audio #2
ID : 3
Format : AC-3
Format/Info : Audio Coding 3
Mode extension : CM (complete main)
Muxing mode : Header stripping
Codec ID : A_AC3
Duration : 2h 5mn
Bit rate mode : Constant
Bit rate : 128 Kbps
Channel(s) : 2 channels
Channel positions : Front: L R
Sampling rate : 48.0 KHz
Bit depth : 16 bits
Compression mode : Lossy
Delay relative to video : 2s 300ms
Stream size : 115 MiB (16%)
Title : !!!dip
Language : Hindi

Text
ID : 4
Format : UTF-8
Codec ID : S_TEXT/UTF8
Codec ID/Info : UTF-8 Plain Text
Title : !!!dip
Language : English



VIDEO AND IMAGE SAMPLE IS AVAILABLE